<svg width="183" height="99" viewBox="0 0 183 99" fill="none" xmlns="http://www.w3.org/2000/svg">
<path d="M145.631 1H37.3692C17.283 1 1 20.146 1 43.7637V55.6978C1 79.3156 17.283 98.4615 37.3692 98.4615H145.631C165.717 98.4615 182 79.3156 182 55.6978V43.7637C182 20.146 165.717 1 145.631 1Z" stroke="black"/>
<path d="M29.0851 49.2852L30.7626 44.205L26.7041 41.4487H31.7367L33.5225 36.0443L35.3082 41.4487H40.3408L36.2823 44.205L37.9598 49.2852L33.5225 46.0966L29.0851 49.2852ZM50.5305 63.1034C49.5825 63.1034 48.7691 62.7643 48.0899 62.0864C47.4108 61.4081 47.0716 60.5957 47.0716 59.6489C47.0716 58.7021 47.4108 57.8895 48.0899 57.2115C48.7691 56.5333 49.5825 56.1945 50.5305 56.1945C51.4785 56.1945 52.2919 56.5333 52.971 57.2115C53.6498 57.8895 53.9894 58.7021 53.9894 59.6489C53.9894 60.2759 53.8294 60.8514 53.5091 61.376C53.2017 61.9006 52.7854 62.3228 52.2601 62.6427C51.7474 62.9501 51.1711 63.1034 50.5305 63.1034ZM62.7931 46.3668C61.6387 46.3668 61.0614 45.7723 61.0614 44.5833C61.0614 43.4663 61.6387 42.908 62.7931 42.908C63.9474 42.908 64.5247 43.4663 64.5247 44.5833C64.5247 45.7723 63.9474 46.3668 62.7931 46.3668ZM65.4446 53.7169C64.2903 53.7169 63.713 53.1403 63.713 51.9874C63.713 50.8704 64.2903 50.3121 65.4446 50.3121C66.5631 50.3121 67.1222 50.8704 67.1222 51.9874C67.1222 53.1403 66.5631 53.7169 65.4446 53.7169ZM73.1829 56.6893C72.0286 56.6893 71.4513 56.1127 71.4513 54.9599C71.4513 53.8071 72.0286 53.2305 73.1829 53.2305C74.3014 53.2305 74.8605 53.8071 74.8605 54.9599C74.8605 56.1127 74.3014 56.6893 73.1829 56.6893ZM65.4446 38.9087C64.2903 38.9087 63.713 38.3321 63.713 37.1792C63.713 36.0622 64.2903 35.5038 65.4446 35.5038C66.5631 35.5038 67.1222 36.0622 67.1222 37.1792C67.1222 38.3321 66.5631 38.9087 65.4446 38.9087ZM80.8671 53.7169C79.7128 53.7169 79.1355 53.1403 79.1355 51.9874C79.1355 50.8704 79.7128 50.3121 80.8671 50.3121C82.0214 50.3121 82.5988 50.8704 82.5988 51.9874C82.5988 53.1403 82.0214 53.7169 80.8671 53.7169ZM73.1829 35.9362C72.0286 35.9362 71.4513 35.3597 71.4513 34.2068C71.4513 33.0898 72.0286 32.5314 73.1829 32.5314C74.3014 32.5314 74.8605 33.0898 74.8605 34.2068C74.8605 35.3597 74.3014 35.9362 73.1829 35.9362ZM83.5187 46.3668C82.4002 46.3668 81.8412 45.7723 81.8412 44.5833C81.8412 43.4663 82.4002 42.908 83.5187 42.908C84.673 42.908 85.2504 43.4663 85.2504 44.5833C85.2504 45.7723 84.673 46.3668 83.5187 46.3668ZM80.8671 38.9087C79.7128 38.9087 79.1355 38.3321 79.1355 37.1792C79.1355 36.0622 79.7128 35.5038 80.8671 35.5038C82.0214 35.5038 82.5988 36.0622 82.5988 37.1792C82.5988 38.3321 82.0214 38.9087 80.8671 38.9087ZM82.52 77.4425C80.139 77.4425 78.1188 77.028 76.4592 76.1994C74.7637 75.3709 73.465 74.2359 72.563 72.7946C71.6613 71.3895 71.2101 69.7681 71.2101 67.9306C71.2101 66.3812 71.5531 64.9943 72.2383 63.7692C72.9239 62.5802 73.8979 61.6435 75.1605 60.9588C76.3872 60.2384 77.7941 59.878 79.3814 59.878C80.8607 59.878 82.0691 60.1303 83.007 60.6346C83.9452 61.1389 84.6304 61.8057 85.0633 62.6342C85.4962 63.4628 85.7127 64.3998 85.7127 65.4446C85.7127 67.102 85.1716 68.4531 84.0893 69.4979C82.9711 70.5426 81.1854 71.0652 78.732 71.0652C77.8303 71.0652 77.0003 70.975 76.2427 70.795C75.4493 70.6149 74.6917 70.3086 73.97 69.8762L73.3206 65.8769C74.0782 66.5254 74.8358 66.9939 75.5934 67.2821C76.351 67.5702 77.1809 67.7144 78.0826 67.7144C79.4175 67.7144 80.3916 67.4982 81.0048 67.0659C81.5821 66.6697 81.8706 66.0931 81.8706 65.3365C81.8706 64.616 81.6362 64.0755 81.1675 63.7151C80.6622 63.3909 80.0307 63.2287 79.2731 63.2287C78.4073 63.2287 77.6497 63.4088 77.0003 63.7692C76.351 64.1654 75.8639 64.7058 75.5393 65.3905C75.1787 66.0752 74.9981 66.8859 74.9981 67.8225V67.9846C74.9981 69.786 75.6296 71.1912 76.8921 72.2001C78.155 73.2449 80.0128 73.7674 82.4659 73.7674C84.3057 73.7674 85.9474 73.4793 87.3902 72.9027C88.8334 72.3261 89.9698 71.3716 90.7997 70.0383C91.6656 68.7051 92.0985 66.9038 92.0985 64.6339C92.0985 63.0845 91.7917 61.4814 91.1785 59.8239C90.6012 58.1306 89.8977 56.7255 89.0681 55.6084L92.802 53.7709C93.4513 54.7799 94.0283 55.8608 94.5336 57.0136C95.0386 58.1664 95.4353 59.3916 95.7241 60.6886C96.0488 61.9857 96.2111 63.3368 96.2111 64.742C96.2111 68.9213 95.0206 72.0741 92.6396 74.1998C90.2586 76.3616 86.8853 77.4425 82.52 77.4425ZM106.758 45.6004L107.066 37.1559L99.9173 41.6852L98.0723 38.4611L105.605 34.5458L98.0723 30.6306L99.9173 27.4064L107.066 31.9357L106.758 23.4912H110.448L110.14 31.9357L117.289 27.4064L119.134 30.6306L111.601 34.5458L119.134 38.4611L117.289 41.6852L110.14 37.1559L110.448 45.6004H106.758ZM129.588 63.1034C128.64 63.1034 127.826 62.7643 127.147 62.0864C126.468 61.4081 126.129 60.5957 126.129 59.6489C126.129 58.7021 126.468 57.8895 127.147 57.2115C127.826 56.5333 128.64 56.1945 129.588 56.1945C130.536 56.1945 131.349 56.5333 132.028 57.2115C132.707 57.8895 133.047 58.7021 133.047 59.6489C133.047 60.2759 132.887 60.8514 132.566 61.376C132.259 61.9006 131.842 62.3228 131.317 62.6427C130.805 62.9501 130.228 63.1034 129.588 63.1034ZM129.588 41.2245C128.64 41.2245 127.826 40.8857 127.147 40.2074C126.468 39.5292 126.129 38.7168 126.129 37.77C126.129 36.8232 126.468 36.0108 127.147 35.3327C127.826 34.6545 128.64 34.3155 129.588 34.3155C130.536 34.3155 131.349 34.6545 132.028 35.3327C132.707 36.0108 133.047 36.8232 133.047 37.77C133.047 38.3969 132.887 38.9728 132.566 39.4974C132.259 40.022 131.842 40.4442 131.317 40.7641C130.805 41.0711 130.228 41.2245 129.588 41.2245ZM150.508 37.7737C152.998 37.7737 155.054 39.7734 155.054 42.2594C155.054 44.7995 152.998 46.7992 150.508 46.7992C147.965 46.7992 145.963 44.7995 145.963 42.2594C145.963 39.7734 147.965 37.7737 150.508 37.7737Z" fill="black"/>
</svg>
