<svg width="128" height="127" viewBox="0 0 128 127" fill="none" xmlns="http://www.w3.org/2000/svg">
<g clip-path="url(#clip0_491_59)">
<path d="M85.9482 81.9088C89.5044 77.3257 99.5265 67.0232 109.919 80.1137C111.07 81.5651 111.688 83.3697 111.631 85.222C111.517 88.836 109.896 94.2593 101.889 95.0327C101.4 95.1044 84.27 97.4962 84.037 87.4992C83.9895 85.475 84.7121 83.5081 85.953 81.9088H85.9482Z" stroke="#1D1D1B" stroke-width="2" stroke-miterlimit="10"/>
<path d="M67.3161 115.046C69.1465 114.177 74.3002 112.94 74.7947 115.676C75.0276 116.936 71.6378 119.968 67.2115 117.314C66.3273 116.784 66.3796 115.485 67.3114 115.046H67.3161Z" stroke="#1D1D1B" stroke-width="2" stroke-miterlimit="10"/>
<path d="M34.1406 71.043C34.1406 71.043 33.2135 86.1816 46.768 87.4849C49.3972 87.7284 59.6094 89.6953 65.5903 77.9033" stroke="#1D1D1B" stroke-width="2" stroke-miterlimit="10"/>
<path d="M87.0275 81.3885C87.0275 81.3885 89.6043 88.5591 98.0574 87.8287C100.268 87.4611 105.184 87.843 109.411 79.4932" stroke="#1D1D1B" stroke-width="2" stroke-miterlimit="10"/>
<path d="M29.2342 89.2803C29.2342 89.2803 27.052 90.4022 27.1328 91.6196" stroke="#1D1D1B" stroke-width="2" stroke-miterlimit="10"/>
<path d="M38.9377 94.5078C38.9377 94.5078 37.4116 95.8446 37.8965 97.3102" stroke="#1D1D1B" stroke-width="2" stroke-miterlimit="10"/>
<path d="M51.3227 95.0762C51.3227 95.0762 50.6666 98.6042 51.3227 99.2965" stroke="#1D1D1B" stroke-width="2" stroke-miterlimit="10"/>
<path d="M61.8582 90.8271C61.8582 90.8271 67.0975 92.5983 66.8978 95.0761" stroke="#1D1D1B" stroke-width="2" stroke-miterlimit="10"/>
<path d="M86.1051 92.2969C86.1051 92.2969 84.0417 93.0846 84.0322 95.0754" stroke="#1D1D1B" stroke-width="2" stroke-miterlimit="10"/>
<path d="M96.4219 95.334C96.4219 95.334 94.9434 96.981 95.105 98.122" stroke="#1D1D1B" stroke-width="2" stroke-miterlimit="10"/>
<path d="M108.883 92.5117C108.883 92.5117 110.4 92.8698 110.642 93.6241" stroke="#1D1D1B" stroke-width="2" stroke-miterlimit="10"/>
<path d="M9.04266 72.069C9.04266 72.069 10.0125 21.0389 29.4339 13.5627C34.6113 9.98691 50.7997 -3.0129 72.8073 1.37448C74.9135 1.86144 106.149 1.69912 119.418 31.117C120.712 33.8812 126.702 61.1841 124.111 80.1993C123.949 81.1732 119.418 80.0369 118.61 81.3355C117.802 82.634 108.959 101.081 104.633 106.547C104.176 107.106 98.2856 113.823 89.4474 118.702C81.6265 123.018 72.4603 124.183 63.7551 122.202C54.4224 120.072 38.9615 116.287 36.1707 113.942C35.5241 113.699 20.7145 107.034 16.5877 77.5353C16.3453 77.2107 13.6353 71.563 9.04266 72.069Z" stroke="#1D1D1B" stroke-width="2" stroke-miterlimit="10"/>
<path d="M9.0427 72.0693C9.0427 72.0693 -0.408849 72.7186 0.542011 87.3464C0.927109 87.9957 0.846286 93.9298 6.51341 97.7491C7.32164 98.4795 17.1725 104.423 25.8824 104.256C26.0346 104.485 50.1674 99.0763 50.2292 118.893C50.3243 118.917 44.8711 117.175 45.4369 126.518C45.356 126.68 40.017 124.159 38.4766 120.259C38.0724 119.853 34.4307 124.646 32.9758 123.916C32.8142 123.429 33.2991 118.058 32.0868 118.669C31.6827 119.204 29.819 122.044 29.819 123.672C29.5765 124.159 26.5005 119.691 27.1471 115.709C27.1471 115.466 19.5402 120.178 11.5292 120.665C11.5292 120.421 19.621 110.892 20.4292 103.192" stroke="#1D1D1B" stroke-width="2" stroke-miterlimit="10"/>
<path d="M6.91748 82.8781C6.91748 82.8781 11.4483 82.7158 15.6559 86.2915" stroke="#1D1D1B" stroke-width="2" stroke-miterlimit="10"/>
<path d="M12.0997 94.0109C12.0997 94.0109 8.62429 90.3969 10.526 83.4697" stroke="#1D1D1B" stroke-width="2" stroke-miterlimit="10"/>
<path d="M123.579 80.5576C123.579 80.5576 132.45 86.7353 123.579 99.9022C123.365 100.227 118.349 104.939 105.16 106.81C104.633 106.548 89.3 103.631 90.7548 118.669C91.0781 119.567 93.5884 126.556 94.8816 125.825C95.2857 125.501 95.9323 120.139 98.0384 121.519C98.6042 122.25 100.872 125.773 101.68 125.878C102.488 125.983 103.054 120.541 104.029 122.087C105.003 123.634 104.756 126.341 105.08 125.883C105.403 125.424 110.095 121.519 109.691 120.139C110.176 120.221 116.894 122.498 118.43 121.6C118.834 121.113 111.308 121.438 110.904 106.161" stroke="#1D1D1B" stroke-width="2" stroke-miterlimit="10"/>
<path d="M117.541 92.1825C117.541 92.1825 120.293 90.0676 123.369 90.9651" stroke="#1D1D1B" stroke-width="2" stroke-miterlimit="10"/>
<path d="M119.566 96.489C119.566 96.489 121.425 95.4578 120.455 91.4619" stroke="#1D1D1B" stroke-width="2" stroke-miterlimit="10"/>
<path d="M16.3405 77.1104C16.3405 77.1104 16.5497 74.9096 17.3579 74.7473C18.1662 74.5849 18.0853 76.9529 18.5703 77.1104C19.0552 77.268 17.9237 68.1638 23.0203 58.9833C22.8587 60.6064 21.7271 66.4595 22.2121 66.7029C22.697 66.9464 25.4498 65.4044 26.0155 63.9387C26.5813 62.4731 27.0662 66.0537 27.3895 66.4595C27.7128 66.8653 28.4402 58.334 36.1279 51.3447C36.532 51.507 39.5272 64.588 41.6286 62.7214C43.73 60.8547 44.6238 53.622 45.5937 53.3785C46.0787 53.4596 46.9677 60.0431 47.3718 60.7735C47.7759 61.504 48.3417 60.0431 48.665 59.0692C48.9883 58.0953 48.7458 62.8884 48.1801 63.1319C47.6143 63.3754 55.6253 62.4826 57.2417 51.3495C57.565 52.0799 59.9137 59.8808 60.3178 59.8808C60.3986 59.5561 60.3986 58.0953 61.2877 57.9282C61.3685 58.334 62.3384 65.1609 61.6918 65.8102C62.5 65.729 66.1418 63.5329 66.3034 60.0383C67.0309 60.363 69.2178 67.9203 68.7329 69.9541C69.0562 69.8729 72.698 67.1899 72.3747 65.4855C72.4555 67.1899 72.3937 68.3309 72.3937 68.3309C72.3937 68.3309 77.7946 69.0613 80.4665 65.8102C80.6281 67.3522 80.224 72.9617 81.4364 73.6922C81.9213 72.8806 84.9973 63.404 86.533 61.8047C87.0179 62.6402 85.6439 71.6632 86.533 71.6632C87.422 71.6632 93.7357 67.2806 95.433 64.23C96.2413 66.3783 95.7563 69.7918 96.2413 68.5744C96.7262 67.357 99.4789 58.0093 100.287 57.9282C100.772 58.4151 100.287 64.9174 101.984 67.1087C102.308 68.3261 107.419 63.7764 109.068 62.6402C109.591 63.6953 110.965 75.6591 111.693 77.1104C112.501 76.9386 115.092 74.3415 115.173 73.0381C115.496 74.9907 114.365 81.2448 114.688 81.9752C115.577 82.0564 119.542 80.7817 119.542 80.7817" stroke="#1D1D1B" stroke-width="2" stroke-miterlimit="10"/>
<path d="M33.5416 64.5117C33.5416 64.5117 45.2419 58.4057 63.8074 64.8746" stroke="#1D1D1B" stroke-width="2" stroke-miterlimit="10"/>
<path d="M110.989 69.2242C110.989 69.2242 100.872 65.6484 92.7802 68.8995" stroke="#1D1D1B" stroke-width="2" stroke-miterlimit="10"/>
<path d="M26.7429 77.0252C27.9172 73.1535 42.8125 61.9726 64.1117 76.5717C67.6727 79.0113 68.4191 83.9954 65.7187 87.3659C64.7298 88.6024 63.3177 89.8914 61.3114 91.1852C55.1166 95.1811 47.562 96.3794 40.3592 94.8421C32.1676 93.09 23.9284 88.2539 26.7382 77.0205L26.7429 77.0252Z" stroke="#1D1D1B" stroke-width="2" stroke-miterlimit="10"/>
</g>
<defs>
<clipPath id="clip0_491_59">
<rect width="128" height="127" fill="white"/>
</clipPath>
</defs>
</svg>
