<?xml version="1.0" encoding="UTF-8"?>
<svg id="Calque_2" data-name="Calque 2" xmlns="http://www.w3.org/2000/svg" viewBox="0 0 269.23 266.02">
  <defs>
    <style>
      .cls-1 {
        fill: none;
        stroke: #1d1d1b;
        stroke-miterlimit: 10;
        stroke-width: 2px;
      }
    </style>
  </defs>
  <path class="cls-1" d="M180.78,171.57c7.48-9.6,28.56-31.18,50.42-3.76,2.42,3.04,3.72,6.82,3.6,10.7-.24,7.57-3.65,18.93-20.49,20.55-1.03.15-37.06,5.16-37.55-15.78-.1-4.24,1.42-8.36,4.03-11.71Z"/>
  <path class="cls-1" d="M141.59,240.98c3.85-1.82,14.69-4.41,15.73,1.32.49,2.64-6.64,8.99-15.95,3.43-1.86-1.11-1.75-3.83.21-4.75Z"/>
  <path class="cls-1" d="M71.81,148.81s-1.95,31.71,26.56,34.44c5.53.51,27.01,4.63,39.59-20.07"/>
  <path class="cls-1" d="M183.05,170.48s5.42,15.02,23.2,13.49c4.65-.77,14.99.03,23.88-17.46"/>
  <path class="cls-1" d="M61.49,187.01s-4.59,2.35-4.42,4.9"/>
  <path class="cls-1" d="M81.9,197.96s-3.21,2.8-2.19,5.87"/>
  <path class="cls-1" d="M107.95,199.15s-1.38,7.39,0,8.84"/>
  <path class="cls-1" d="M130.11,190.25s11.02,3.71,10.6,8.9"/>
  <path class="cls-1" d="M181.11,193.33s-4.34,1.65-4.36,5.82"/>
  <path class="cls-1" d="M202.81,199.69s-3.11,3.45-2.77,5.84"/>
  <path class="cls-1" d="M229.02,193.78s3.19.75,3.7,2.33"/>
  <path class="cls-1" d="M19.02,150.96s2.04-106.89,42.89-122.55c10.89-7.49,44.94-34.72,91.23-25.53,4.43,1.02,70.13.68,98.04,62.3,2.72,5.79,15.32,62.98,9.87,102.81-.34,2.04-9.87-.34-11.57,2.38-1.7,2.72-20.3,41.36-29.4,52.81-.96,1.17-13.35,15.24-31.94,25.46-16.45,9.04-35.73,11.48-54.04,7.33-19.63-4.46-52.15-12.39-58.02-17.3-1.36-.51-32.51-14.47-41.19-76.26-.51-.68-6.21-12.51-15.87-11.45Z"/>
  <path class="cls-1" d="M19.02,150.96s-19.88,1.36-17.88,32c.81,1.36.64,13.79,12.56,21.79,1.7,1.53,22.42,13.98,40.74,13.63.32.48,51.08-10.85,51.21,30.66.2.05-11.27-3.6-10.08,15.97-.17.34-11.4-4.94-14.64-13.11-.85-.85-8.51,9.19-11.57,7.66-.34-1.02.68-12.27-1.87-10.99-.85,1.12-4.77,7.07-4.77,10.48-.51,1.02-6.98-8.34-5.62-16.68,0-.51-16,9.36-32.85,10.38,0-.51,17.02-20.47,18.72-36.6"/>
  <path class="cls-1" d="M14.55,173.6s9.53-.34,18.38,7.15"/>
  <path class="cls-1" d="M25.45,196.92s-7.31-7.57-3.31-22.08"/>
  <path class="cls-1" d="M259.93,168.74s18.66,12.94,0,40.52c-.45.68-11,10.55-38.74,14.47-1.11-.55-33.36-6.66-30.3,24.84.68,1.88,5.96,16.52,8.68,14.99.85-.68,2.21-11.91,6.64-9.02,1.19,1.53,5.96,8.91,7.66,9.13s2.89-11.18,4.94-7.94,1.53,8.91,2.21,7.95,10.55-9.14,9.7-12.03c1.02.17,15.15,4.94,18.38,3.06.85-1.02-14.98-.34-15.83-32.34"/>
  <path class="cls-1" d="M247.23,193.09s5.79-4.43,12.26-2.55"/>
  <path class="cls-1" d="M251.49,202.11s3.91-2.16,1.87-10.53"/>
  <path class="cls-1" d="M34.37,161.52s.44-4.61,2.14-4.95,1.53,4.62,2.55,4.95-1.36-18.74,9.36-37.97c-.34,3.4-2.72,15.66-1.7,16.17s6.81-2.72,8-5.79,2.21,4.43,2.89,5.28,2.21-17.02,18.38-31.66c.85.34,7.15,27.74,11.57,23.83s6.3-19.06,8.34-19.57c1.02.17,2.89,13.96,3.74,15.49s2.04-1.53,2.72-3.57.17,8-1.02,8.51,15.66-1.36,19.06-24.68c.68,1.53,5.62,17.87,6.47,17.87.17-.68.17-3.74,2.04-4.09.17.85,2.21,15.15.85,16.51,1.7-.17,9.36-4.77,9.7-12.09,1.53.68,6.13,16.51,5.11,20.77.68-.17,8.34-5.79,7.66-9.36.17,3.57.04,5.96.04,5.96,0,0,11.36,1.53,16.98-5.28.34,3.23-.51,14.98,2.04,16.51,1.02-1.7,7.49-21.55,10.72-24.9,1.02,1.75-1.87,20.65,0,20.65s15.15-9.18,18.72-15.57c1.7,4.5.68,11.65,1.7,9.1s6.81-22.13,8.51-22.3c1.02,1.02,0,14.64,3.57,19.23.68,2.55,11.43-6.98,14.9-9.36,1.1,2.21,3.99,27.27,5.52,30.31,1.7-.36,7.15-5.8,7.32-8.53.68,4.09-1.7,17.19-1.02,18.72,1.87.17,10.21-2.5,10.21-2.5"/>
  <path class="cls-1" d="M70.55,135.13s24.61-12.79,63.66.76"/>
  <path class="cls-1" d="M233.45,145s-21.28-7.49-38.3-.68"/>
  <path class="cls-1" d="M56.25,161.34c2.47-8.11,33.8-31.53,78.6-.95,7.49,5.11,9.06,15.55,3.38,22.61-2.08,2.59-5.05,5.29-9.27,8-13.03,8.37-28.92,10.88-44.07,7.66-17.23-3.67-34.56-13.8-28.65-37.33Z"/>
</svg>