<svg width="39" height="17" viewBox="0 0 39 17" fill="none" xmlns="http://www.w3.org/2000/svg">
<path d="M1.52 8L2.016 6.496L0.816 5.68H2.304L2.832 4.08L3.36 5.68H4.848L3.648 6.496L4.144 8L2.832 7.056L1.52 8ZM7.8608 12.0909C7.58049 12.0909 7.33996 11.9905 7.1392 11.7898C6.93845 11.589 6.83807 11.3485 6.83807 11.0682C6.83807 10.7879 6.93845 10.5473 7.1392 10.3466C7.33996 10.1458 7.58049 10.0455 7.8608 10.0455C8.1411 10.0455 8.38163 10.1458 8.58239 10.3466C8.78314 10.5473 8.88352 10.7879 8.88352 11.0682C8.88352 11.2538 8.83617 11.4242 8.74148 11.5795C8.65057 11.7348 8.52746 11.8598 8.37216 11.9545C8.22064 12.0455 8.05019 12.0909 7.8608 12.0909ZM11.4865 7.136C11.1452 7.136 10.9745 6.96 10.9745 6.608C10.9745 6.27733 11.1452 6.112 11.4865 6.112C11.8278 6.112 11.9985 6.27733 11.9985 6.608C11.9985 6.96 11.8278 7.136 11.4865 7.136ZM12.2705 9.312C11.9292 9.312 11.7585 9.14133 11.7585 8.8C11.7585 8.46933 11.9292 8.304 12.2705 8.304C12.6012 8.304 12.7665 8.46933 12.7665 8.8C12.7665 9.14133 12.6012 9.312 12.2705 9.312ZM14.5585 10.192C14.2172 10.192 14.0465 10.0213 14.0465 9.68C14.0465 9.33867 14.2172 9.168 14.5585 9.168C14.8892 9.168 15.0545 9.33867 15.0545 9.68C15.0545 10.0213 14.8892 10.192 14.5585 10.192ZM12.2705 4.928C11.9292 4.928 11.7585 4.75733 11.7585 4.416C11.7585 4.08533 11.9292 3.92 12.2705 3.92C12.6012 3.92 12.7665 4.08533 12.7665 4.416C12.7665 4.75733 12.6012 4.928 12.2705 4.928ZM16.8305 9.312C16.4892 9.312 16.3185 9.14133 16.3185 8.8C16.3185 8.46933 16.4892 8.304 16.8305 8.304C17.1718 8.304 17.3425 8.46933 17.3425 8.8C17.3425 9.14133 17.1718 9.312 16.8305 9.312ZM14.5585 4.048C14.2172 4.048 14.0465 3.87733 14.0465 3.536C14.0465 3.20533 14.2172 3.04 14.5585 3.04C14.8892 3.04 15.0545 3.20533 15.0545 3.536C15.0545 3.87733 14.8892 4.048 14.5585 4.048ZM17.6145 7.136C17.2838 7.136 17.1185 6.96 17.1185 6.608C17.1185 6.27733 17.2838 6.112 17.6145 6.112C17.9558 6.112 18.1265 6.27733 18.1265 6.608C18.1265 6.96 17.9558 7.136 17.6145 7.136ZM16.8305 4.928C16.4892 4.928 16.3185 4.75733 16.3185 4.416C16.3185 4.08533 16.4892 3.92 16.8305 3.92C17.1718 3.92 17.3425 4.08533 17.3425 4.416C17.3425 4.75733 17.1718 4.928 16.8305 4.928ZM17.3192 16.336C16.6152 16.336 16.0179 16.2133 15.5272 15.968C15.0259 15.7227 14.6419 15.3867 14.3752 14.96C14.1086 14.544 13.9752 14.064 13.9752 13.52C13.9752 13.0613 14.0766 12.6507 14.2792 12.288C14.4819 11.936 14.7699 11.6587 15.1432 11.456C15.5059 11.2427 15.9219 11.136 16.3912 11.136C16.8286 11.136 17.1859 11.2107 17.4632 11.36C17.7406 11.5093 17.9432 11.7067 18.0712 11.952C18.1992 12.1973 18.2632 12.4747 18.2632 12.784C18.2632 13.2747 18.1032 13.6747 17.7832 13.984C17.4526 14.2933 16.9246 14.448 16.1992 14.448C15.9326 14.448 15.6872 14.4213 15.4632 14.368C15.2286 14.3147 15.0046 14.224 14.7912 14.096L14.5992 12.912C14.8232 13.104 15.0472 13.2427 15.2712 13.328C15.4952 13.4133 15.7406 13.456 16.0072 13.456C16.4019 13.456 16.6899 13.392 16.8712 13.264C17.0419 13.1467 17.1272 12.976 17.1272 12.752C17.1272 12.5387 17.0579 12.3787 16.9193 12.272C16.7699 12.176 16.5832 12.128 16.3592 12.128C16.1032 12.128 15.8792 12.1813 15.6872 12.288C15.4952 12.4053 15.3512 12.5653 15.2552 12.768C15.1486 12.9707 15.0952 13.2107 15.0952 13.488V13.536C15.0952 14.0693 15.2819 14.4853 15.6552 14.784C16.0286 15.0933 16.5779 15.248 17.3032 15.248C17.8472 15.248 18.3326 15.1627 18.7592 14.992C19.1859 14.8213 19.5219 14.5387 19.7673 14.144C20.0233 13.7493 20.1513 13.216 20.1513 12.544C20.1513 12.0853 20.0606 11.6107 19.8793 11.12C19.7086 10.6187 19.5006 10.2027 19.2553 9.872L20.3593 9.328C20.5513 9.62667 20.7219 9.94667 20.8713 10.288C21.0206 10.6293 21.1379 10.992 21.2233 11.376C21.3193 11.76 21.3673 12.16 21.3673 12.576C21.3673 13.8133 21.0153 14.7467 20.3113 15.376C19.6073 16.016 18.6099 16.336 17.3192 16.336ZM24.4858 6.90909L24.5767 4.40909L22.4631 5.75L21.9176 4.79545L24.1449 3.63636L21.9176 2.47727L22.4631 1.52273L24.5767 2.86364L24.4858 0.363636H25.5767L25.4858 2.86364L27.5994 1.52273L28.1449 2.47727L25.9176 3.63636L28.1449 4.79545L27.5994 5.75L25.4858 4.40909L25.5767 6.90909H24.4858ZM31.2358 12.0909C30.9555 12.0909 30.715 11.9905 30.5142 11.7898C30.3134 11.589 30.2131 11.3485 30.2131 11.0682C30.2131 10.7879 30.3134 10.5473 30.5142 10.3466C30.715 10.1458 30.9555 10.0455 31.2358 10.0455C31.5161 10.0455 31.7566 10.1458 31.9574 10.3466C32.1581 10.5473 32.2585 10.7879 32.2585 11.0682C32.2585 11.2538 32.2112 11.4242 32.1165 11.5795C32.0256 11.7348 31.9025 11.8598 31.7472 11.9545C31.5956 12.0455 31.4252 12.0909 31.2358 12.0909ZM31.2358 5.61364C30.9555 5.61364 30.715 5.51326 30.5142 5.3125C30.3134 5.11174 30.2131 4.87121 30.2131 4.59091C30.2131 4.31061 30.3134 4.07008 30.5142 3.86932C30.715 3.66856 30.9555 3.56818 31.2358 3.56818C31.5161 3.56818 31.7566 3.66856 31.9574 3.86932C32.1581 4.07008 32.2585 4.31061 32.2585 4.59091C32.2585 4.77652 32.2112 4.94697 32.1165 5.10227C32.0256 5.25758 31.9025 5.38258 31.7472 5.47727C31.5956 5.56818 31.4252 5.61364 31.2358 5.61364ZM37.4215 4.592C38.1575 4.592 38.7655 5.184 38.7655 5.92C38.7655 6.672 38.1575 7.264 37.4215 7.264C36.6695 7.264 36.0775 6.672 36.0775 5.92C36.0775 5.184 36.6695 4.592 37.4215 4.592Z" fill="black"/>
</svg>
