<svg width="104" height="105" viewBox="0 0 104 105" fill="none" xmlns="http://www.w3.org/2000/svg">
<g clip-path="url(#clip0_491_89)">
<path d="M103.979 0H0V103.979H103.979V0Z" fill="#597370"/>
<path d="M38.7351 73.4316H22.4791V67.8636H22.9911C24.1857 67.8636 25.2311 67.949 26.1271 68.1196C27.0231 68.2476 27.8337 68.6743 28.5591 69.3996L28.9431 69.0156C28.2604 68.2903 27.8337 67.501 27.6631 66.6476C27.4924 65.7516 27.4071 64.7063 27.4071 63.5116V34.7756C27.4071 33.581 27.4924 32.5356 27.6631 31.6396C27.8337 30.7436 28.2604 29.9543 28.9431 29.2716L28.5591 28.8876C27.8337 29.5703 27.0231 29.997 26.1271 30.1676C25.2311 30.2956 24.1857 30.3596 22.9911 30.3596H22.4791V25.3676L31.5031 23.5116H33.8071V34.7756C33.8071 37.2076 33.7004 39.213 33.4871 40.7916C33.3164 42.3703 32.9324 43.9916 32.3351 45.6556L32.8471 45.9116C33.6577 44.461 34.6391 43.0743 35.7911 41.7516C36.9431 40.3863 38.2871 39.2983 39.8231 38.4876C41.4017 37.6343 43.2151 37.2076 45.2631 37.2076C48.2924 37.2076 50.6817 38.061 52.4311 39.7676C54.2231 41.4743 55.1191 44.1196 55.1191 47.7036V63.5116C55.1191 64.7063 55.0337 65.7516 54.8631 66.6476C54.7351 67.501 54.3084 68.2903 53.5831 69.0156L53.9671 69.3996C54.6924 68.6743 55.4817 68.2476 56.3351 68.1196C57.2311 67.949 58.2764 67.8636 59.4711 67.8636H60.0471V73.4316H43.8551V67.8636H44.3031C45.4977 67.8636 46.5431 67.949 47.4391 68.1196C48.3351 68.2476 49.1457 68.6743 49.8711 69.3996L50.2551 69.0156C49.5724 68.2903 49.1457 67.501 48.9751 66.6476C48.8044 65.7516 48.7191 64.7063 48.7191 63.5116V48.7276C48.7191 46.7223 48.1857 45.229 47.1191 44.2476C46.0524 43.2236 44.4524 42.7116 42.3191 42.7116C40.5697 42.7116 39.0124 43.0743 37.6471 43.7996C36.2817 44.525 35.0017 45.485 33.8071 46.6796V63.5116C33.8071 64.7063 33.7217 65.7516 33.5511 66.6476C33.4231 67.501 32.9964 68.2903 32.2711 69.0156L32.6551 69.3996C33.3804 68.6743 34.1697 68.2476 35.0231 68.1196C35.9191 67.949 36.9644 67.8636 38.1591 67.8636H38.7351V73.4316ZM69.0916 33.0476V24.9836H75.6196V33.0476H69.0916ZM75.6196 37.9756V63.5116C75.6196 64.7063 75.5342 65.7516 75.3636 66.6476C75.2356 67.501 74.8089 68.2903 74.0836 69.0156L74.4676 69.3996C75.1929 68.6743 75.9822 68.2476 76.8356 68.1196C77.7316 67.949 78.7769 67.8636 79.9716 67.8636H80.5476V73.4316H64.2916V67.8636H64.8036C65.9982 67.8636 67.0436 67.949 67.9396 68.1196C68.8356 68.2476 69.6462 68.6743 70.3716 69.3996L70.7556 69.0156C70.0729 68.2903 69.6462 67.501 69.4756 66.6476C69.3049 65.7516 69.2196 64.7063 69.2196 63.5116V48.0876C69.2196 46.893 69.3049 45.8476 69.4756 44.9516C69.6462 44.0556 70.0729 43.245 70.7556 42.5196L70.3716 42.1356C69.6462 42.8183 68.8356 43.245 67.9396 43.4156C67.0436 43.5863 65.9982 43.6716 64.8036 43.6716H64.2916V37.9756H75.6196Z" fill="#D74A43"/>
</g>
<defs>
<clipPath id="clip0_491_89">
<rect width="103.979" height="104.289" fill="white"/>
</clipPath>
</defs>
</svg>
