<svg width="149" height="99" viewBox="0 0 149 99" fill="none" xmlns="http://www.w3.org/2000/svg">
<path d="M118.463 1H30.5374C14.2243 1 1 20.0553 1 43.5612V55.4388C1 78.9447 14.2243 98 30.5374 98H118.463C134.776 98 148 78.9447 148 55.4388V43.5612C148 20.0553 134.776 1 118.463 1Z" stroke="black"/>
<path d="M107.627 72.9947L53.9826 72.7065C52.1562 72.6966 50.3496 72.3272 48.666 71.6192C46.9824 70.9112 45.4547 69.8785 44.1702 68.5801C42.8856 67.2817 41.8694 65.743 41.1796 64.0519C40.4897 62.3608 40.1397 60.5503 40.1495 58.7239C40.1593 56.8975 40.5287 55.0909 41.2367 53.4073C41.9447 51.7237 42.9774 50.196 44.2758 48.9115C45.5742 47.6269 47.1129 46.6107 48.8041 45.9208C50.4952 45.231 52.3056 44.881 54.132 44.8908L89.8951 45.0829C93.5837 45.1027 97.129 43.6564 99.7513 41.0622C102.374 38.468 103.858 34.9384 103.878 31.2498C103.897 27.5612 102.451 24.0158 99.857 21.3936C97.2627 18.7713 93.7331 17.287 90.0445 17.2672L42.3605 17.011M107.627 72.9947L93.6446 86.8278M107.627 72.9947L93.794 59.0121" stroke="black" stroke-width="1.5" stroke-linecap="round" stroke-linejoin="round"/>
</svg>
