<?xml version="1.0" encoding="UTF-8"?>
<svg id="Calque_1" data-name="Calque 1" xmlns="http://www.w3.org/2000/svg" viewBox="0 0 84.24 85.31">
  <defs>
    <style>
      .cls-1 {
        fill: #000;
        stroke-width: 0px;
      }
    </style>
  </defs>
  <path class="cls-1" d="M65.24,56.12c.38-.62.73-1.22,1.13-1.79,2.03-2.91,4.5-5.35,7.58-7.13.59-.34,1.22-.63,1.83-.95.15-.08.29-.04.44-.02,1.54.26,2.99.78,4.25,1.73,1.64,1.24,2.67,2.9,3.37,4.82.45,1.26.43,2.51.35,3.8-.09,1.55-.34,3.07-.64,4.58-.15.79-.55,1.43-1.11,2.01-1.07,1.11-2.33,2-3.57,2.9-2.31,1.68-4.72,3.22-7.15,4.74-1.48.92-2.95,1.86-4.44,2.76-.92.55-1.95.79-3,.96-.97.15-1.93.18-2.86-.17-.21-.08-.38-.01-.54.14-.44.42-.72.95-.96,1.5-.34.78-.55,1.6-.84,2.39-.64,1.73-1.28,3.46-2.43,4.93-.4.51-.89.91-1.37,1.33-.11.1-.22.2-.27.35-.08.23-.24.31-.48.31-2.87-.01-5.74-.01-8.61,0-.25,0-.4-.05-.41-.33,0-.13-.08-.21-.19-.28-3.28-2.22-6.37-4.69-9.48-7.13-.86-.68-1.75-1.32-2.62-1.98-.31-.23-.65-.35-1.02-.37-2.49-.15-4.95-.57-7.38-1.11-3.3-.73-6.56-1.57-9.77-2.64-1.57-.52-2.72-1.59-3.65-2.91-.94-1.34-1.63-2.8-2.2-4.33-.8-2.14-1.48-4.32-1.81-6.58-.22-1.63-.17-3.25.63-4.76.66-1.24,1.72-1.9,3.07-2.15.37-.07.73,0,1.09.1,1.07.34,2.06.84,3.02,1.41.95.57,1.84,1.23,2.79,1.79.28.16.31.16.31-.16,0-1.29.05-2.57-.31-3.85-.42-1.49-.53-3.06-.7-4.6-.07-.69-.19-1.38-.41-2.05-.24-.72-.3-1.48-.37-2.23-.02-.23-.1-.35-.35-.39-1.77-.27-3.53-.6-5.31-.87-2.2-.33-4.39-.7-6.58-1.05-1.35-.21-2.7-.42-4.04-.62-.2-.03-.24-.1-.23-.29.03-.65.11-1.29.28-1.92.53-1.91,1.33-3.71,2.21-5.47,1.54-3.09,3.35-6.02,5.13-8.97.89-1.47,2.03-2.7,3.18-3.95,1.85-2.01,3.81-3.92,5.78-5.81.69-.66,1.29-1.42,1.99-2.07,1.72-1.61,3.62-3.01,5.58-4.3,2.3-1.52,4.7-2.85,7.13-4.14.93-.49,1.94-.66,2.94-.84,2.16-.39,4.33-.54,6.52-.41,1.05.06,2.11.14,3.14.39.47.12.86.34,1.2.68,2.63,2.52,5.14,5.15,7.67,7.77,1.33,1.39,2.75,2.69,4.15,4,2.18,2.04,4.13,4.3,6.1,6.54.85.97,1.7,1.93,2.55,2.9.26.29.48.61.67.95,1.51,2.65,3.07,5.26,4.65,7.88.12.2.23.4.35.59.49.8.45,1.61-.01,2.41-.51.9-1.25,1.61-2.1,2.18-1.03.69-2.01,1.48-3.15,2-.17.08-.17.21-.14.35.05.29.09.59.19.87.41,1.22.41,2.47.36,3.73-.08,2.19-.31,4.37-.51,6.56-.14,1.51-.33,3.01-.53,4.51-.06.46-.12.93-.16,1.39,0,.11-.03.22.07.37h0ZM49.71,84.73c1.07-.02,2.12-.1,3.18-.3,1.08-.21,2.05-.56,2.78-1.43.5-.6.96-1.22,1.29-1.93.32-.69.62-1.38.91-2.08.4-.95.62-1.95.99-2.91.39-1,.91-1.9,1.75-2.59.11-.09.17-.2.19-.35.31-1.96.62-3.92.95-5.87.27-1.59.57-3.18.85-4.76.31-1.71.73-3.39,1.61-4.91.03-.05.08-.12.01-.15-.31-.15-.21-.42-.19-.65.19-1.58.36-3.17.58-4.74.24-1.72.36-3.45.55-5.17.12-1.07.12-2.15.19-3.22.09-1.34.14-2.67-.33-3.96-.04-.1-.05-.21-.07-.32-.11-.51-.12-.51-.63-.33h-.03c-1.59.64-3.21,1.2-4.84,1.72-.82.26-1.64.5-2.51.49-.68,0-1.36,0-2.03.04-1.89.12-3.77.38-5.63.69-1.52.26-3.05.48-4.58.72-1.37.21-2.74.4-4.11.56-1.13.13-2.26.22-3.38.42-.86.16-1.71.31-2.57.32-2.7.03-5.37-.24-8.02-.79-2.17-.45-4.32-1.04-6.46-1.61-.8-.21-1.6-.4-2.42-.55-.21-.04-.25,0-.23.22.03.46.08.91.18,1.36.14.68.4,1.33.49,2.03.26,2.02.41,4.06.95,6.04.28,1.04.2,2.13.09,3.18-.1.92.11,1.66.56,2.45,2.28,3.99,4.59,7.95,7.23,11.72,1.28,1.82,2.59,3.62,4.22,5.15.47.44.96.88,1.59,1.09.36.12.69.3,1,.52,1.59,1.12,3.1,2.35,4.63,3.55,2.45,1.92,4.92,3.81,7.48,5.57.42.29.86.5,1.36.59.81.12,1.61.21,2.42.18h0ZM56.47,40.26c.57.02,1.14.04,1.69-.12,2.25-.66,4.45-1.45,6.62-2.33.27-.11.09-.21,0-.29-.8-.79-1.47-1.68-1.93-2.71-.06-.14-.15-.26-.23-.39-1.36-2.13-2.69-4.29-4.14-6.36-.79-1.13-1.57-2.26-2.49-3.29-1.01-1.13-2.06-2.23-3.12-3.3-2.45-2.46-4.98-4.84-7.78-6.9-.97-.71-1.96-1.37-3.1-1.77-2.48-.87-4.95-1.76-7.5-2.42-.61-.16-1.22-.31-1.86-.02-1.75.79-3.42,1.7-4.98,2.83-2.09,1.52-3.91,3.3-5.29,5.51-.65,1.04-1.27,2.09-1.94,3.12-1.12,1.7-1.97,3.53-2.49,5.5-.18.7-.45,1.35-.8,1.98-.55.98-.72,2.03-.4,3.14.17.56.32,1.13.4,1.71.13.93.34,1.84.32,2.79-.02.87-.07,1.73-.1,2.6-.02.42.01.45.42.54.63.14,1.27.24,1.9.41,2,.54,4,1.06,6.02,1.54,1.77.42,3.57.7,5.39.88,1.68.17,3.36.16,5.04,0,.55-.06,1.09-.25,1.64-.3,2.08-.19,4.16-.46,6.23-.76,2.56-.38,5.11-.85,7.68-1.19,1.6-.21,3.19-.34,4.8-.39h0ZM40.05,1.03c-1.95-.04-3.88.08-5.8.44-.89.17-1.78.32-2.6.76-2.37,1.25-4.7,2.57-6.94,4.04-1.84,1.21-3.63,2.49-5.25,4-.74.69-1.38,1.47-2.09,2.18-2.01,1.98-4.02,3.97-5.97,6-.89.93-1.82,1.83-2.48,2.94-.83,1.39-1.7,2.74-2.53,4.13-1.57,2.65-3.07,5.34-4.27,8.18-.45,1.07-.84,2.17-1.06,3.32-.05.24,0,.35.25.39.73.11,1.45.24,2.18.35,2.23.35,4.47.68,6.7,1.04,1.93.31,3.85.65,5.78.97.44.07.44.06.45-.37,0-.11.01-.22.02-.33.14-2,0-3.98-.5-5.93-.14-.54-.31-1.07-.32-1.64-.01-1.13.34-2.15.92-3.11.15-.25.27-.51.33-.8.31-1.36.81-2.64,1.4-3.9.98-2.07,2.39-3.88,3.51-5.87.13-.22.28-.43.44-.64,1.69-2.29,3.77-4.16,6.17-5.68,1.33-.84,2.71-1.61,4.19-2.15.4-.15.8-.19,1.23-.12,1.31.24,2.57.62,3.83,1.03,1.65.54,3.29,1.08,4.91,1.69,1.4.52,2.6,1.39,3.78,2.28,1.47,1.11,2.86,2.33,4.22,3.58,2.05,1.88,3.99,3.88,5.86,5.94,1.92,2.11,3.46,4.5,5,6.89.76,1.18,1.57,2.33,2.24,3.57.55,1.03,1.2,1.97,2.03,2.78.22.22.39.25.64.08.83-.57,1.7-1.09,2.48-1.72.44-.35.87-.71,1.22-1.14.73-.89.75-1.34.17-2.32-1.11-1.85-2.2-3.72-3.31-5.57-.89-1.49-1.65-3.07-2.9-4.34-.41-.42-.78-.88-1.17-1.32-2.07-2.37-4.16-4.7-6.39-6.93-.76-.76-1.65-1.39-2.4-2.16-3.11-3.19-6.19-6.42-9.36-9.55-.38-.38-.81-.61-1.34-.72-1.1-.19-2.18-.24-3.27-.27ZM63.19,73.65c.24.02.51-.02.79-.06,1.01-.13,2-.35,2.89-.89,3.73-2.32,7.49-4.59,11.08-7.14,1.4-.99,2.77-2.02,3.97-3.26.35-.36.6-.76.69-1.26.26-1.42.52-2.84.61-4.29.04-.62.04-1.23.07-1.85.03-.77-.28-1.46-.53-2.16-1.03-2.89-3.03-4.68-6.01-5.39-.47-.11-.91-.07-1.34.17-.56.32-1.14.62-1.68.97-3.02,1.92-5.37,4.49-7.24,7.51-.18.3-.37.59-.59.86-.78.93-1.28,2.01-1.68,3.14-.43,1.24-.61,2.53-.84,3.81-.3,1.67-.6,3.33-.89,5-.25,1.44-.47,2.89-.71,4.33-.03.2.02.31.23.36.36.11.74.14,1.18.15h0ZM30.76,74.05c-.59-.44-1.04-.93-1.48-1.44-1.51-1.73-2.82-3.61-4.1-5.51-1.55-2.3-2.98-4.67-4.4-7.05-.78-1.32-1.51-2.67-2.25-4.01-.24-.44-.55-.79-.96-1.07-1.01-.68-2.02-1.35-3.06-1.98-.79-.49-1.63-.88-2.51-1.17-.23-.07-.45-.13-.7-.1-1.21.16-2.06.81-2.55,1.92-.61,1.4-.61,2.87-.32,4.32.43,2.18,1.05,4.31,1.88,6.38.57,1.42,1.22,2.8,2.17,4,.71.91,1.52,1.72,2.65,2.11.63.22,1.26.44,1.9.62,1.32.39,2.64.75,3.97,1.1,2.79.73,5.6,1.33,8.44,1.79.41.08.83.2,1.32.09Z"/>
  <path class="cls-1" d="M49.37,78.27c.18-.49.17-.94.23-1.38.25-1.98.37-3.97.58-5.95.1-.99.25-1.98.39-2.96.05-.34.19-.6.46-.83.51-.43.9-.99,1.27-1.54.55-.82,1.11-1.63,1.49-2.55.05-.12.12-.21.25-.23.19-.03.33-.14.45-.28.13-.15.19-.09.24.05.13.39.02.75-.15,1.09-.42.84-.91,1.64-1.45,2.4-.46.65-.93,1.3-1.51,1.85-.1.1-.12.22-.14.35-.33,2.19-.45,4.4-.7,6.6-.16,1.41-.2,2.84-.57,4.23-.04.14-.08.29-.13.43-.19.5-.71.59-1.06.18-.2-.23-.34-.49-.44-.78-.57-1.69-1.59-3.12-2.7-4.48-2.03-2.49-4.35-4.69-6.75-6.81-.32-.29-.69-.43-1.12-.43h-1.7c-.41,0-.75-.15-1.05-.44-.27-.26-.49-.55-.68-.87-.75-1.22-1.11-2.59-1.4-3.98-.03-.16.08-.19.18-.21.21-.05.43-.08.64-.12.17-.03.13.1.15.19.22,1.06.47,2.12.96,3.1.21.42.45.82.79,1.15.15.15.32.22.53.22.61-.01,1.21-.07,1.82-.01.51.05.97.23,1.36.56,2,1.73,3.93,3.53,5.7,5.5,1.13,1.25,2.18,2.57,3.07,4,.37.61.69,1.23.99,1.95Z"/>
  <path class="cls-1" d="M24.94,53.34c2.86.05,5.63.61,8.39,1.32,1.34.34,2.64.81,3.98,1.17.11.03.16.08.12.19v.06c-.15.75-.21.79-.91.55-2.31-.78-4.66-1.42-7.07-1.85-2.04-.36-4.1-.57-6.18-.45-.24,0-.34-.04-.3-.29v-.03c-.01-.64-.02-.64.64-.69.44,0,.89,0,1.34.02h-.01Z"/>
  <path class="cls-1" d="M62.14,53.27c.02.19-.08.21-.22.22-2.42.29-4.79.8-7.11,1.54-1.58.5-3.14,1.09-4.56,1.97-.12.07-.19.08-.26-.06-.04-.09-.11-.17-.16-.25-.28-.42-.29-.43.17-.69,1.73-.97,3.56-1.67,5.47-2.2,1.81-.51,3.65-.92,5.51-1.18.28-.04.55-.06.83-.12.18-.03.25.04.27.19.03.2.04.4.06.58Z"/>
  <path class="cls-1" d="M76.96,55.99v.27c0,.12-.03.18-.17.18-2.44.04-4.55,1.02-6.56,2.3-.03.02-.06.03-.07.05-.12.14-.43.11-.42.3,0,.15.2.3.32.45,1.05,1.33,1.95,2.74,2.5,4.36.07.21.14.41.15.64,0,.09.02.2-.1.22-.25.04-.49.07-.74.09-.07.01-.1-.05-.11-.12-.17-1.08-.75-1.99-1.27-2.91-.38-.67-.86-1.27-1.33-1.88-.18-.23-.31-.24-.53-.07-1.39,1.09-2.69,2.28-3.86,3.61-.26.3-.27.3-.58.08-.48-.35-.49-.35-.09-.79,1.92-2.13,4.06-4,6.55-5.44,1.39-.8,2.86-1.39,4.43-1.72.51-.11,1.03-.11,1.54-.16.27-.03.37.06.34.32-.01.07,0,.14,0,.21,0,.05,0,.05,0,0h0Z"/>
  <path class="cls-1" d="M16.17,59.15c1.38-.02,2.74.21,4.08.5.19.04.24.13.21.32-.1.64-.14.67-.77.57-.26-.04-.51-.07-.77-.11-.23-.03-.29.04-.24.28.23,1.15.48,2.3.78,3.43.22.85.43,1.7.7,2.53.06.19.03.26-.17.32-.72.19-.71.19-.92-.53-.54-1.9-1.03-3.8-1.38-5.75-.09-.5-.11-.48-.62-.53-1.02-.09-2.03,0-3.04.12-.21.03-.3-.04-.29-.25,0-.09-.01-.18-.03-.27-.08-.39-.08-.4.32-.47.72-.14,1.43-.14,2.14-.16Z"/>
</svg>