<svg width="91" height="104" viewBox="0 0 91 104" fill="none" xmlns="http://www.w3.org/2000/svg">
<path d="M37.6379 38.4344C37.6379 38.4344 44.2441 0.216365 44.4797 0.0816233C44.6853 -0.0381474 46.5173 -0.0156904 46.5472 0.0816233C46.7005 0.272508 53.1646 38.2735 53.1983 38.4344C53.2282 38.5842 84.8536 27.0113 89.3512 25.5291C89.6428 25.4318 89.9606 25.5441 90.1251 25.8024C90.4691 26.3413 91.0748 26.9439 90.8168 27.3032C90.3009 28.0294 60.9934 51.6878 60.9934 51.9423C61.1205 52.1968 91.0299 77.0418 91 77.2327C90.9701 77.4235 90.0466 79.1115 89.8559 79.1115C89.6653 79.1115 53.5497 65.4128 53.2319 65.3828C53.1347 65.6374 46.835 103.863 46.5808 103.927C46.3266 103.99 44.5133 104.054 44.4498 103.927C44.3862 103.799 37.7987 65.2256 37.6417 65.2893C37.4846 65.3529 1.60833 79.0779 1.27185 79.0517C1.15595 79.0404 -0.0329474 77.2364 0.000700673 77.1091C0.0343487 76.9819 30.2914 52.2605 30.1344 52.0247C29.9774 51.7889 2.73741 29.4404 0.191371 27.3519C0.0829494 27.2621 0.056781 27.1049 0.135293 26.9851C0.434387 26.5135 1.1036 25.3981 1.27558 25.4131C2.01958 25.4655 37.2304 38.6964 37.6454 38.4419L37.6379 38.4344Z" fill="#EE6666"/>
</svg>
