<svg width="57" height="26" viewBox="0 0 57 26" fill="none" xmlns="http://www.w3.org/2000/svg">
<rect x="0.25" y="1.25" width="53.5" height="24.5" rx="10.75" stroke="black" stroke-width="0.5"/>
<path d="M7.52 14L8.016 12.496L6.816 11.68H8.304L8.832 10.08L9.36 11.68H10.848L9.648 12.496L10.144 14L8.832 13.056L7.52 14ZM13.8608 18.0909C13.5805 18.0909 13.34 17.9905 13.1392 17.7898C12.9384 17.589 12.8381 17.3485 12.8381 17.0682C12.8381 16.7879 12.9384 16.5473 13.1392 16.3466C13.34 16.1458 13.5805 16.0455 13.8608 16.0455C14.1411 16.0455 14.3816 16.1458 14.5824 16.3466C14.7831 16.5473 14.8835 16.7879 14.8835 17.0682C14.8835 17.2538 14.8362 17.4242 14.7415 17.5795C14.6506 17.7348 14.5275 17.8598 14.3722 17.9545C14.2206 18.0455 14.0502 18.0909 13.8608 18.0909ZM17.4865 13.136C17.1452 13.136 16.9745 12.96 16.9745 12.608C16.9745 12.2773 17.1452 12.112 17.4865 12.112C17.8278 12.112 17.9985 12.2773 17.9985 12.608C17.9985 12.96 17.8278 13.136 17.4865 13.136ZM18.2705 15.312C17.9292 15.312 17.7585 15.1413 17.7585 14.8C17.7585 14.4693 17.9292 14.304 18.2705 14.304C18.6012 14.304 18.7665 14.4693 18.7665 14.8C18.7665 15.1413 18.6012 15.312 18.2705 15.312ZM20.5585 16.192C20.2172 16.192 20.0465 16.0213 20.0465 15.68C20.0465 15.3387 20.2172 15.168 20.5585 15.168C20.8892 15.168 21.0545 15.3387 21.0545 15.68C21.0545 16.0213 20.8892 16.192 20.5585 16.192ZM18.2705 10.928C17.9292 10.928 17.7585 10.7573 17.7585 10.416C17.7585 10.0853 17.9292 9.92 18.2705 9.92C18.6012 9.92 18.7665 10.0853 18.7665 10.416C18.7665 10.7573 18.6012 10.928 18.2705 10.928ZM22.8305 15.312C22.4892 15.312 22.3185 15.1413 22.3185 14.8C22.3185 14.4693 22.4892 14.304 22.8305 14.304C23.1718 14.304 23.3425 14.4693 23.3425 14.8C23.3425 15.1413 23.1718 15.312 22.8305 15.312ZM20.5585 10.048C20.2172 10.048 20.0465 9.87733 20.0465 9.536C20.0465 9.20533 20.2172 9.04 20.5585 9.04C20.8892 9.04 21.0545 9.20533 21.0545 9.536C21.0545 9.87733 20.8892 10.048 20.5585 10.048ZM23.6145 13.136C23.2838 13.136 23.1185 12.96 23.1185 12.608C23.1185 12.2773 23.2838 12.112 23.6145 12.112C23.9558 12.112 24.1265 12.2773 24.1265 12.608C24.1265 12.96 23.9558 13.136 23.6145 13.136ZM22.8305 10.928C22.4892 10.928 22.3185 10.7573 22.3185 10.416C22.3185 10.0853 22.4892 9.92 22.8305 9.92C23.1718 9.92 23.3425 10.0853 23.3425 10.416C23.3425 10.7573 23.1718 10.928 22.8305 10.928ZM23.3192 22.336C22.6152 22.336 22.0179 22.2133 21.5272 21.968C21.0259 21.7227 20.6419 21.3867 20.3752 20.96C20.1086 20.544 19.9752 20.064 19.9752 19.52C19.9752 19.0613 20.0766 18.6507 20.2792 18.288C20.4819 17.936 20.7699 17.6587 21.1432 17.456C21.5059 17.2427 21.9219 17.136 22.3912 17.136C22.8286 17.136 23.1859 17.2107 23.4632 17.36C23.7406 17.5093 23.9432 17.7067 24.0712 17.952C24.1992 18.1973 24.2632 18.4747 24.2632 18.784C24.2632 19.2747 24.1032 19.6747 23.7832 19.984C23.4526 20.2933 22.9246 20.448 22.1992 20.448C21.9326 20.448 21.6872 20.4213 21.4632 20.368C21.2286 20.3147 21.0046 20.224 20.7912 20.096L20.5992 18.912C20.8232 19.104 21.0472 19.2427 21.2712 19.328C21.4952 19.4133 21.7406 19.456 22.0072 19.456C22.4019 19.456 22.6899 19.392 22.8712 19.264C23.0419 19.1467 23.1272 18.976 23.1272 18.752C23.1272 18.5387 23.0579 18.3787 22.9193 18.272C22.7699 18.176 22.5832 18.128 22.3592 18.128C22.1032 18.128 21.8792 18.1813 21.6872 18.288C21.4952 18.4053 21.3512 18.5653 21.2552 18.768C21.1486 18.9707 21.0952 19.2107 21.0952 19.488V19.536C21.0952 20.0693 21.2819 20.4853 21.6552 20.784C22.0286 21.0933 22.5779 21.248 23.3032 21.248C23.8472 21.248 24.3326 21.1627 24.7592 20.992C25.1859 20.8213 25.5219 20.5387 25.7673 20.144C26.0233 19.7493 26.1513 19.216 26.1513 18.544C26.1513 18.0853 26.0606 17.6107 25.8793 17.12C25.7086 16.6187 25.5006 16.2027 25.2553 15.872L26.3593 15.328C26.5513 15.6267 26.7219 15.9467 26.8713 16.288C27.0206 16.6293 27.1379 16.992 27.2233 17.376C27.3193 17.76 27.3673 18.16 27.3673 18.576C27.3673 19.8133 27.0153 20.7467 26.3113 21.376C25.6073 22.016 24.6099 22.336 23.3192 22.336ZM30.4858 12.9091L30.5767 10.4091L28.4631 11.75L27.9176 10.7955L30.1449 9.63636L27.9176 8.47727L28.4631 7.52273L30.5767 8.86364L30.4858 6.36364H31.5767L31.4858 8.86364L33.5994 7.52273L34.1449 8.47727L31.9176 9.63636L34.1449 10.7955L33.5994 11.75L31.4858 10.4091L31.5767 12.9091H30.4858ZM37.2358 18.0909C36.9555 18.0909 36.715 17.9905 36.5142 17.7898C36.3134 17.589 36.2131 17.3485 36.2131 17.0682C36.2131 16.7879 36.3134 16.5473 36.5142 16.3466C36.715 16.1458 36.9555 16.0455 37.2358 16.0455C37.5161 16.0455 37.7566 16.1458 37.9574 16.3466C38.1581 16.5473 38.2585 16.7879 38.2585 17.0682C38.2585 17.2538 38.2112 17.4242 38.1165 17.5795C38.0256 17.7348 37.9025 17.8598 37.7472 17.9545C37.5956 18.0455 37.4252 18.0909 37.2358 18.0909ZM37.2358 11.6136C36.9555 11.6136 36.715 11.5133 36.5142 11.3125C36.3134 11.1117 36.2131 10.8712 36.2131 10.5909C36.2131 10.3106 36.3134 10.0701 36.5142 9.86932C36.715 9.66856 36.9555 9.56818 37.2358 9.56818C37.5161 9.56818 37.7566 9.66856 37.9574 9.86932C38.1581 10.0701 38.2585 10.3106 38.2585 10.5909C38.2585 10.7765 38.2112 10.947 38.1165 11.1023C38.0256 11.2576 37.9025 11.3826 37.7472 11.4773C37.5956 11.5682 37.4252 11.6136 37.2358 11.6136ZM43.4215 10.592C44.1575 10.592 44.7655 11.184 44.7655 11.92C44.7655 12.672 44.1575 13.264 43.4215 13.264C42.6695 13.264 42.0775 12.672 42.0775 11.92C42.0775 11.184 42.6695 10.592 43.4215 10.592Z" fill="black"/>
</svg>
