<?xml version="1.0" encoding="UTF-8"?>
<svg id="Layer_2" data-name="Layer 2" xmlns="http://www.w3.org/2000/svg" viewBox="0 0 418.5 413.25">
  <defs>
    <style>
      .cls-1 {
        fill: #e66;
        stroke-width: 0px;
      }
    </style>
  </defs>
  <path class="cls-1" d="M267.55,167.85s17.67-102.11,18.3-102.47c.55-.32,5.45-.26,5.53,0,.41.51,17.7,102.04,17.79,102.47.08.4,84.67-30.52,96.7-34.48.78-.26,1.63.04,2.07.73.92,1.44,2.54,3.05,1.85,4.01-1.38,1.94-79.77,65.15-79.77,65.83.34.68,80.34,67.06,80.26,67.57s-2.55,5.02-3.06,5.02-97.11-36.6-97.96-36.68c-.26.68-17.11,102.81-17.79,102.98s-5.53.34-5.7,0-17.79-103.4-18.21-103.23-96.38,36.84-97.28,36.77c-.31-.03-3.49-4.85-3.4-5.19s81.02-66.39,80.6-67.02-73.28-60.34-80.09-65.92c-.29-.24-.36-.66-.15-.98.8-1.26,2.59-4.24,3.05-4.2,1.99.14,96.17,35.49,97.28,34.81Z"/>
</svg>