<svg width="14" height="7" viewBox="0 0 14 7" fill="none" xmlns="http://www.w3.org/2000/svg">
<path d="M7.43614 6.83468L13.8336 0.894469C13.9404 0.795354 14 0.663672 14 0.526737C14 0.389801 13.9404 0.25812 13.8336 0.159005L13.8264 0.152609C13.7746 0.104393 13.7123 0.0660005 13.6432 0.0397649C13.5741 0.0135294 13.4998 -1.22439e-08 13.4246 -5.67223e-09C13.3494 8.9945e-10 13.275 0.0135294 13.206 0.039765C13.1369 0.0660006 13.0746 0.104393 13.0228 0.152609L6.9988 5.74641L0.977208 0.15261C0.925433 0.104395 0.863113 0.0660016 0.794039 0.0397661C0.724964 0.0135305 0.650578 1.11107e-06 0.575407 1.11764e-06C0.500236 1.12421e-06 0.425851 0.0135305 0.356776 0.0397661C0.287701 0.0660017 0.225381 0.104395 0.173607 0.15261L0.166377 0.159006C0.0595781 0.258121 -5.73215e-07 0.389802 -5.61244e-07 0.526738C-5.49272e-07 0.663673 0.0595782 0.795355 0.166377 0.89447L6.56386 6.83468C6.62012 6.88692 6.68779 6.92851 6.76276 6.95693C6.83773 6.98535 6.91844 7 7 7C7.08156 7 7.16227 6.98535 7.23724 6.95693C7.31221 6.92851 7.37988 6.88692 7.43614 6.83468Z" fill="#333333"/>
</svg>
