<svg width="14" height="7" viewBox="0 0 14 7" fill="none" xmlns="http://www.w3.org/2000/svg">
<path d="M7 5.80367L0.894622 0.145332C0.84542 0.0987454 0.787007 0.0619155 0.722761 0.0369725C0.658516 0.0120296 0.589715 -0.00053144 0.520339 1.74724e-05C0.450964 0.000566385 0.382391 0.014214 0.31859 0.0401701C0.254789 0.0661261 0.197026 0.103875 0.148644 0.151233C0.100261 0.198592 0.0622203 0.254618 0.0367223 0.316071C0.0112242 0.377524 -0.0012247 0.443184 9.59273e-05 0.509249C0.00141656 0.575315 0.0164805 0.640475 0.0444161 0.700959C0.0723516 0.761443 0.112604 0.816049 0.162844 0.861619L6.63411 6.85845C6.73206 6.94922 6.86334 7 7 7C7.13666 7 7.26793 6.94922 7.36589 6.85845L13.8372 0.86162C13.8874 0.816051 13.9277 0.761444 13.9556 0.70096C13.9835 0.640476 13.9986 0.575317 13.9999 0.509251C14.0012 0.443186 13.9888 0.377526 13.9633 0.316073C13.9378 0.25462 13.8997 0.198593 13.8514 0.151235C13.803 0.103877 13.7452 0.0661279 13.6814 0.0401718C13.6176 0.0142157 13.549 0.000568103 13.4797 1.91718e-05C13.4103 -0.000529759 13.3415 0.0120313 13.2772 0.0369742C13.213 0.0619171 13.1546 0.098747 13.1054 0.145333L7 5.80367Z" fill="#333333"/>
</svg>
