<svg width="14" height="7" viewBox="0 0 14 7" fill="none" xmlns="http://www.w3.org/2000/svg">
<path d="M7 1.19633L13.1054 6.85467C13.1546 6.90125 13.213 6.93808 13.2772 6.96303C13.3415 6.98797 13.4103 7.00053 13.4797 6.99998C13.549 6.99943 13.6176 6.98579 13.6814 6.95983C13.7452 6.93387 13.803 6.89612 13.8514 6.84877C13.8997 6.80141 13.9378 6.74538 13.9633 6.68393C13.9888 6.62248 14.0012 6.55682 13.9999 6.49075C13.9986 6.42469 13.9835 6.35953 13.9556 6.29904C13.9276 6.23856 13.8874 6.18395 13.8372 6.13838L7.36589 0.141551C7.26794 0.0507847 7.13666 -3.00006e-07 7 -3.0598e-07C6.86334 -3.11953e-07 6.73207 0.0507847 6.63411 0.141551L0.162842 6.13838C0.112602 6.18395 0.0723505 6.23856 0.0444149 6.29904C0.0164794 6.35952 0.00141565 6.42468 9.50097e-05 6.49075C-0.00122563 6.55682 0.0112229 6.62248 0.0367209 6.68393C0.0622189 6.74538 0.100259 6.80141 0.148642 6.84877C0.197024 6.89612 0.254788 6.93387 0.318589 6.95983C0.38239 6.98579 0.450963 6.99943 0.520338 6.99998C0.589714 7.00053 0.658515 6.98797 0.72276 6.96303C0.787005 6.93808 0.845419 6.90125 0.894621 6.85467L7 1.19633Z" fill="#333333"/>
</svg>
