<svg width="14" height="7" viewBox="0 0 14 7" fill="none" xmlns="http://www.w3.org/2000/svg">
<path d="M6.56386 0.16532L0.166377 6.10553C0.0595781 6.20465 0 6.33633 0 6.47326C0 6.6102 0.0595781 6.74188 0.166377 6.841L0.173606 6.84739C0.22538 6.89561 0.2877 6.934 0.356775 6.96024C0.42585 6.98647 0.500235 7 0.575407 7C0.650578 7 0.724963 6.98647 0.794038 6.96024C0.863113 6.934 0.925433 6.89561 0.977207 6.84739L7.0012 1.25359L13.0228 6.84739C13.0746 6.89561 13.1369 6.934 13.206 6.96024C13.275 6.98647 13.3494 7 13.4246 7C13.4998 7 13.5741 6.98647 13.6432 6.96024C13.7123 6.934 13.7746 6.89561 13.8264 6.84739L13.8336 6.841C13.9404 6.74188 14 6.6102 14 6.47326C14 6.33633 13.9404 6.20465 13.8336 6.10553L7.43614 0.16532C7.37988 0.113078 7.31221 0.0714881 7.23724 0.0430707C7.16227 0.0146532 7.08156 0 7 0C6.91844 0 6.83773 0.0146532 6.76276 0.0430707C6.68779 0.0714881 6.62012 0.113078 6.56386 0.16532Z" fill="#333333"/>
</svg>
