<?xml version="1.0" encoding="UTF-8"?>
<svg id="Calque_1" data-name="Calque 1" xmlns="http://www.w3.org/2000/svg" viewBox="0 0 84.24 84.24">
  <defs>
    <style>
      .cls-1 {
        fill: #000;
      }

      .cls-1, .cls-2 {
        stroke-width: 0px;
      }

      .cls-2 {
        fill: #fff;
      }
    </style>
  </defs>
  <circle class="cls-1" cx="42.12" cy="42.12" r="42.12"/>
  <g>
    <path class="cls-2" d="M58.07,50.04c.26-.43.5-.84.78-1.23,1.4-2.01,3.1-3.69,5.23-4.92.41-.23.84-.43,1.26-.66.1-.06.2-.03.3-.01,1.06.18,2.06.54,2.93,1.19,1.13.86,1.84,2,2.32,3.32.31.87.3,1.73.24,2.62-.06,1.07-.23,2.12-.44,3.16-.1.54-.38.99-.77,1.39-.74.77-1.61,1.38-2.46,2-1.59,1.16-3.25,2.22-4.93,3.27-1.02.63-2.03,1.28-3.06,1.9-.63.38-1.34.54-2.07.66-.67.1-1.33.12-1.97-.12-.14-.06-.26,0-.37.1-.3.29-.5.66-.66,1.03-.23.54-.38,1.1-.58,1.65-.44,1.19-.88,2.39-1.68,3.4-.28.35-.61.63-.94.92-.08.07-.15.14-.19.24-.06.16-.17.21-.33.21-1.98,0-3.96,0-5.94,0-.17,0-.28-.03-.28-.23,0-.09-.06-.14-.13-.19-2.26-1.53-4.39-3.23-6.54-4.92-.59-.47-1.21-.91-1.81-1.37-.21-.16-.45-.24-.7-.26-1.72-.1-3.41-.39-5.09-.77-2.28-.5-4.52-1.08-6.74-1.82-1.08-.36-1.88-1.1-2.52-2.01-.65-.92-1.12-1.93-1.52-2.99-.55-1.48-1.02-2.98-1.25-4.54-.15-1.12-.12-2.24.43-3.28.46-.86,1.19-1.31,2.12-1.48.26-.05.5,0,.75.07.74.23,1.42.58,2.08.97.66.39,1.27.85,1.92,1.23.19.11.21.11.21-.11,0-.89.03-1.77-.21-2.66-.29-1.03-.37-2.11-.48-3.17-.05-.48-.13-.95-.28-1.41-.17-.5-.21-1.02-.26-1.54-.01-.16-.07-.24-.24-.27-1.22-.19-2.43-.41-3.66-.6-1.52-.23-3.03-.48-4.54-.72-.93-.14-1.86-.29-2.79-.43-.14-.02-.17-.07-.16-.2.02-.45.08-.89.19-1.32.37-1.32.92-2.56,1.52-3.77,1.06-2.13,2.31-4.15,3.54-6.19.61-1.01,1.4-1.86,2.19-2.72,1.28-1.39,2.63-2.7,3.99-4.01.48-.46.89-.98,1.37-1.43,1.19-1.11,2.5-2.08,3.85-2.97,1.59-1.05,3.24-1.97,4.92-2.86.64-.34,1.34-.46,2.03-.58,1.49-.27,2.99-.37,4.5-.28.72.04,1.46.1,2.17.27.32.08.59.23.83.47,1.81,1.74,3.54,3.55,5.29,5.36.92.96,1.9,1.86,2.86,2.76,1.5,1.41,2.85,2.97,4.21,4.51.59.67,1.17,1.33,1.76,2,.18.2.33.42.46.66,1.04,1.83,2.12,3.63,3.21,5.43.08.14.16.28.24.41.34.55.31,1.11,0,1.66-.35.62-.86,1.11-1.45,1.5-.71.48-1.39,1.02-2.17,1.38-.12.06-.12.14-.1.24.03.2.06.41.13.6.28.84.28,1.7.25,2.57-.06,1.51-.21,3.01-.35,4.52-.1,1.04-.23,2.08-.37,3.11-.04.32-.08.64-.11.96,0,.08-.02.15.05.26h0ZM47.36,69.77c.74-.01,1.46-.07,2.19-.21.74-.14,1.41-.39,1.92-.99.34-.41.66-.84.89-1.33.22-.48.43-.95.63-1.43.28-.66.43-1.34.68-2.01.27-.69.63-1.31,1.21-1.79.08-.06.12-.14.13-.24.21-1.35.43-2.7.66-4.05.19-1.1.39-2.19.59-3.28.21-1.18.5-2.34,1.11-3.39.02-.03.06-.08,0-.1-.21-.1-.14-.29-.13-.45.13-1.09.25-2.19.4-3.27.17-1.19.25-2.38.38-3.57.08-.74.08-1.48.13-2.22.06-.92.1-1.84-.23-2.73-.03-.07-.03-.14-.05-.22-.08-.35-.08-.35-.43-.23h-.02c-1.1.44-2.21.83-3.34,1.19-.57.18-1.13.34-1.73.34-.47,0-.94,0-1.4.03-1.3.08-2.6.26-3.88.48-1.05.18-2.1.33-3.16.5-.94.14-1.89.28-2.83.39-.78.09-1.56.15-2.33.29-.59.11-1.18.21-1.77.22-1.86.02-3.7-.17-5.53-.54-1.5-.31-2.98-.72-4.45-1.11-.55-.14-1.1-.28-1.67-.38-.14-.03-.17,0-.16.15.02.32.06.63.12.94.1.47.28.92.34,1.4.18,1.39.28,2.8.66,4.17.19.72.14,1.47.06,2.19-.07.63.08,1.14.39,1.69,1.57,2.75,3.17,5.48,4.99,8.08.88,1.26,1.79,2.5,2.91,3.55.32.3.66.61,1.1.75.25.08.48.21.69.36,1.1.77,2.14,1.62,3.19,2.45,1.69,1.32,3.39,2.63,5.16,3.84.29.2.59.34.94.41.56.08,1.11.14,1.67.12h0ZM52.02,39.11c.39.01.79.03,1.17-.08,1.55-.46,3.07-1,4.57-1.61.19-.08.06-.14,0-.2-.55-.54-1.01-1.16-1.33-1.87-.04-.1-.1-.18-.16-.27-.94-1.47-1.86-2.96-2.86-4.39-.54-.78-1.08-1.56-1.72-2.27-.7-.78-1.42-1.54-2.15-2.28-1.69-1.7-3.43-3.34-5.37-4.76-.67-.49-1.35-.94-2.14-1.22-1.71-.6-3.41-1.21-5.17-1.67-.42-.11-.84-.21-1.28-.01-1.21.54-2.36,1.17-3.43,1.95-1.44,1.05-2.7,2.28-3.65,3.8-.45.72-.88,1.44-1.34,2.15-.77,1.17-1.36,2.43-1.72,3.79-.12.48-.31.93-.55,1.37-.38.68-.5,1.4-.28,2.17.12.39.22.78.28,1.18.09.64.23,1.27.22,1.92-.01.6-.05,1.19-.07,1.79-.01.29,0,.31.29.37.43.1.88.17,1.31.28,1.38.37,2.76.73,4.15,1.06,1.22.29,2.46.48,3.72.61,1.16.12,2.32.11,3.48,0,.38-.04.75-.17,1.13-.21,1.43-.13,2.87-.32,4.3-.52,1.77-.26,3.52-.59,5.3-.82,1.1-.14,2.2-.23,3.31-.27h0ZM40.69,12.05c-1.34-.03-2.68.06-4,.3-.61.12-1.23.22-1.79.52-1.63.86-3.24,1.77-4.79,2.79-1.27.83-2.5,1.72-3.62,2.76-.51.48-.95,1.01-1.44,1.5-1.39,1.37-2.77,2.74-4.12,4.14-.61.64-1.26,1.26-1.71,2.03-.57.96-1.17,1.89-1.74,2.85-1.08,1.83-2.12,3.68-2.94,5.64-.31.74-.58,1.5-.73,2.29-.03.17,0,.24.17.27.5.08,1,.17,1.5.24,1.54.24,3.08.47,4.62.72,1.33.21,2.66.45,3.99.67.3.05.3.04.31-.26,0-.08,0-.15.01-.23.1-1.38,0-2.74-.34-4.09-.1-.37-.21-.74-.22-1.13,0-.78.23-1.48.63-2.14.1-.17.19-.35.23-.55.21-.94.56-1.82.97-2.69.68-1.43,1.65-2.68,2.42-4.05.09-.15.19-.3.3-.44,1.17-1.58,2.6-2.87,4.25-3.92.92-.58,1.87-1.11,2.89-1.48.28-.1.55-.13.85-.08.9.17,1.77.43,2.64.71,1.14.37,2.27.74,3.39,1.17.97.36,1.79.96,2.61,1.57,1.01.77,1.97,1.61,2.91,2.47,1.41,1.3,2.75,2.68,4.04,4.1,1.32,1.46,2.39,3.1,3.45,4.75.52.81,1.08,1.61,1.54,2.46.38.71.83,1.36,1.4,1.92.15.15.27.17.44.06.57-.39,1.17-.75,1.71-1.19.3-.24.6-.49.84-.79.5-.61.52-.92.12-1.6-.77-1.28-1.52-2.57-2.28-3.84-.61-1.03-1.14-2.12-2-2.99-.28-.29-.54-.61-.81-.91-1.43-1.63-2.87-3.24-4.41-4.78-.52-.52-1.14-.96-1.66-1.49-2.14-2.2-4.27-4.43-6.45-6.59-.26-.26-.56-.42-.92-.5-.76-.13-1.5-.17-2.26-.19ZM56.65,62.13c.17.01.35-.01.54-.04.7-.09,1.38-.24,1.99-.61,2.57-1.6,5.17-3.17,7.64-4.92.97-.68,1.91-1.39,2.74-2.25.24-.25.41-.52.48-.87.18-.98.36-1.96.42-2.96.03-.43.03-.85.05-1.28.02-.53-.19-1.01-.37-1.49-.71-1.99-2.09-3.23-4.14-3.72-.32-.08-.63-.05-.92.12-.39.22-.79.43-1.16.67-2.08,1.32-3.7,3.1-4.99,5.18-.12.21-.26.41-.41.59-.54.64-.88,1.39-1.16,2.17-.3.86-.42,1.74-.58,2.63-.21,1.15-.41,2.3-.61,3.45-.17.99-.32,1.99-.49,2.99-.02.14.01.21.16.25.25.08.51.1.81.1h0ZM34.29,62.41c-.41-.3-.72-.64-1.02-.99-1.04-1.19-1.94-2.49-2.83-3.8-1.07-1.59-2.06-3.22-3.03-4.86-.54-.91-1.04-1.84-1.55-2.77-.17-.3-.38-.54-.66-.74-.7-.47-1.39-.93-2.11-1.37-.54-.34-1.12-.61-1.73-.81-.16-.05-.31-.09-.48-.07-.83.11-1.42.56-1.76,1.32-.42.97-.42,1.98-.22,2.98.3,1.5.72,2.97,1.3,4.4.39.98.84,1.93,1.5,2.76.49.63,1.05,1.19,1.83,1.46.43.15.87.3,1.31.43.91.27,1.82.52,2.74.76,1.92.5,3.86.92,5.82,1.23.28.06.57.14.91.06Z"/>
    <path class="cls-2" d="M47.12,65.32c.12-.34.12-.65.16-.95.17-1.37.26-2.74.4-4.1.07-.68.17-1.37.27-2.04.03-.23.13-.41.32-.57.35-.3.62-.68.88-1.06.38-.57.77-1.12,1.03-1.76.03-.08.08-.14.17-.16.13-.02.23-.1.31-.19.09-.1.13-.06.17.03.09.27.01.52-.1.75-.29.58-.63,1.13-1,1.66-.32.45-.64.9-1.04,1.28-.07.07-.08.15-.1.24-.23,1.51-.31,3.03-.48,4.55-.11.97-.14,1.96-.39,2.92-.03.1-.06.2-.09.3-.13.34-.49.41-.73.12-.14-.16-.23-.34-.3-.54-.39-1.17-1.1-2.15-1.86-3.09-1.4-1.72-3-3.23-4.65-4.7-.22-.2-.48-.3-.77-.3h-1.17c-.28,0-.52-.1-.72-.3-.19-.18-.34-.38-.47-.6-.52-.84-.77-1.79-.97-2.74-.02-.11.06-.13.12-.14.14-.03.3-.06.44-.08.12-.02.09.07.1.13.15.73.32,1.46.66,2.14.14.29.31.57.54.79.1.1.22.15.37.15.42,0,.83-.05,1.26,0,.35.03.67.16.94.39,1.38,1.19,2.71,2.43,3.93,3.79.78.86,1.5,1.77,2.12,2.76.26.42.48.85.68,1.34Z"/>
    <path class="cls-2" d="M30.27,48.13c1.97.03,3.88.42,5.79.91.92.23,1.82.56,2.74.81.08.02.11.06.08.13v.04c-.1.52-.14.54-.63.38-1.59-.54-3.21-.98-4.88-1.28-1.41-.25-2.83-.39-4.26-.31-.17,0-.23-.03-.21-.2v-.02c0-.44-.01-.44.44-.48.3,0,.61,0,.92.01h0Z"/>
    <path class="cls-2" d="M55.93,48.08c.01.13-.06.14-.15.15-1.67.2-3.3.55-4.9,1.06-1.09.34-2.17.75-3.14,1.36-.08.05-.13.06-.18-.04-.03-.06-.08-.12-.11-.17-.19-.29-.2-.3.12-.48,1.19-.67,2.46-1.15,3.77-1.52,1.25-.35,2.52-.63,3.8-.81.19-.03.38-.04.57-.08.12-.02.17.03.19.13.02.14.03.28.04.4Z"/>
    <path class="cls-2" d="M66.15,49.95v.19c0,.08-.02.12-.12.12-1.68.03-3.14.7-4.52,1.59-.02.01-.04.02-.05.03-.08.1-.3.08-.29.21,0,.1.14.21.22.31.72.92,1.34,1.89,1.72,3.01.05.14.1.28.1.44,0,.06.01.14-.07.15-.17.03-.34.05-.51.06-.05,0-.07-.03-.08-.08-.12-.74-.52-1.37-.88-2.01-.26-.46-.59-.88-.92-1.3-.12-.16-.21-.17-.37-.05-.96.75-1.86,1.57-2.66,2.49-.18.21-.19.21-.4.06-.33-.24-.34-.24-.06-.54,1.32-1.47,2.8-2.76,4.52-3.75.96-.55,1.97-.96,3.05-1.19.35-.08.71-.08,1.06-.11.19-.02.26.04.23.22,0,.05,0,.1,0,.14,0,.03,0,.03,0,0h0Z"/>
    <path class="cls-2" d="M24.23,52.13c.95-.01,1.89.14,2.81.34.13.03.17.09.14.22-.07.44-.1.46-.53.39-.18-.03-.35-.05-.53-.08-.16-.02-.2.03-.17.19.16.79.33,1.59.54,2.37.15.59.3,1.17.48,1.74.04.13.02.18-.12.22-.5.13-.49.13-.63-.37-.37-1.31-.71-2.62-.95-3.97-.06-.34-.08-.33-.43-.37-.7-.06-1.4,0-2.1.08-.14.02-.21-.03-.2-.17,0-.06,0-.12-.02-.19-.06-.27-.06-.28.22-.32.5-.1.99-.1,1.48-.11Z"/>
  </g>
</svg>