<svg width="7" height="14" viewBox="0 0 7 14" fill="none" xmlns="http://www.w3.org/2000/svg">
<path d="M1.19633 7L6.85467 0.894621C6.90125 0.845419 6.93808 0.787006 6.96303 0.72276C6.98797 0.658515 7.00053 0.589714 6.99998 0.520339C6.99943 0.450963 6.98579 0.382391 6.95983 0.318589C6.93387 0.254788 6.89612 0.197025 6.84877 0.148643C6.80141 0.10026 6.74538 0.0622194 6.68393 0.0367214C6.62248 0.0112234 6.55682 -0.00122556 6.49075 9.50761e-05C6.42469 0.00141571 6.35953 0.0164797 6.29904 0.0444152C6.23856 0.0723508 6.18395 0.112603 6.13838 0.162843L0.141552 6.63411C0.050785 6.73206 0 6.86334 0 7C0 7.13666 0.050785 7.26793 0.141552 7.36589L6.13838 13.8372C6.18395 13.8874 6.23856 13.9276 6.29904 13.9556C6.35953 13.9835 6.42469 13.9986 6.49075 13.9999C6.55682 14.0012 6.62248 13.9888 6.68393 13.9633C6.74538 13.9378 6.80141 13.8997 6.84877 13.8514C6.89612 13.803 6.93387 13.7452 6.95983 13.6814C6.98579 13.6176 6.99943 13.549 6.99998 13.4797C7.00053 13.4103 6.98797 13.3415 6.96303 13.2772C6.93808 13.213 6.90125 13.1546 6.85467 13.1054L1.19633 7Z" fill="#333333"/>
</svg>
