<svg width="7" height="14" viewBox="0 0 7 14" fill="none" xmlns="http://www.w3.org/2000/svg">
<path d="M5.80367 7L0.145331 13.1054C0.0987454 13.1546 0.0619155 13.213 0.0369726 13.2772C0.0120297 13.3415 -0.000531622 13.4103 1.72116e-05 13.4797C0.000566522 13.549 0.0142141 13.6176 0.0401702 13.6814C0.0661259 13.7452 0.103875 13.803 0.151233 13.8514C0.198592 13.8997 0.254618 13.9378 0.316071 13.9633C0.377524 13.9888 0.443184 14.0012 0.509249 13.9999C0.575315 13.9986 0.640474 13.9835 0.700959 13.9556C0.761443 13.9276 0.816049 13.8874 0.861619 13.8372L6.85845 7.36589C6.94922 7.26794 7 7.13666 7 7C7 6.86334 6.94922 6.73207 6.85845 6.63411L0.86162 0.162842C0.81605 0.112602 0.761444 0.07235 0.70096 0.0444149C0.640476 0.0164789 0.575316 0.00141564 0.50925 9.48e-05C0.443185 -0.00122604 0.377525 0.0112223 0.316072 0.0367206C0.254619 0.062219 0.198593 0.100259 0.151234 0.148641C0.103876 0.197024 0.0661271 0.254787 0.0401714 0.318589C0.0142152 0.382389 0.000567667 0.450962 1.83446e-05 0.520338C-0.000530501 0.589713 0.0120308 0.658514 0.0369737 0.72276C0.0619166 0.787005 0.0987465 0.845419 0.145333 0.89462L5.80367 7Z" fill="#333333"/>
</svg>
